<svg xmlns="http://www.w3.org/2000/svg" viewBox="0 0 500 528" width="500" height="528">
	<style>
		.dark-adaptive { fill: #152346; }
		@media (prefers-color-scheme: dark) {
		.dark-adaptive { fill: #ffffff; }
		}
  </style>
<path class="dark-adaptive" opacity="1.000000" stroke="none" 
	d="
M242.835739,193.999542 
	C233.665649,196.426788 224.249420,198.182602 215.381256,201.433472 
	C200.898941,206.742340 187.755600,214.516113 175.809052,224.530640 
	C154.977600,241.993225 142.138123,264.203156 135.469772,290.160278 
	C131.317261,306.324341 129.908524,322.945648 131.144714,339.546539 
	C132.531204,358.165649 136.333054,376.374451 144.757614,393.296631 
	C153.652832,411.164276 166.262161,425.907471 182.092850,438.046570 
	C199.505386,451.398590 219.449188,458.997223 240.552246,463.643433 
	C249.590652,465.633453 258.989990,466.048370 268.247070,466.957397 
	C273.979065,467.520325 279.767029,468.115387 285.503998,467.923431 
	C312.480530,467.020782 338.935242,463.028961 363.303406,450.762604 
	C381.414551,441.645905 397.040497,429.157715 409.067566,412.494965 
	C413.816620,405.915466 420.919617,402.392731 428.631775,401.333832 
	C440.137695,399.753998 451.172852,401.323975 459.853149,410.347015 
	C470.014130,420.909149 471.200226,433.671295 467.355591,446.748566 
	C465.902771,451.690277 461.186798,455.836945 457.495728,459.928802 
	C438.409821,481.087097 415.750732,497.624237 389.525024,508.506866 
	C373.991760,514.952576 357.603363,519.605774 341.265930,523.749939 
	C330.600250,526.455383 319.336304,526.802124 308.170166,528.602722 
	C287.979095,529.000000 267.958221,529.000000 247.457352,528.571289 
	C246.209045,527.762207 245.472549,527.149231 244.667221,527.038940 
	C239.016235,526.265076 233.253540,526.037354 227.707230,524.815186 
	C203.231049,519.421753 179.428574,512.195801 157.616364,499.303192 
	C139.848892,488.801239 123.448608,476.851379 109.600967,461.303528 
	C96.191788,446.247986 85.135971,429.867981 77.043228,411.430115 
	C66.661140,387.776398 62.124310,362.840820 61.109192,337.225342 
	C60.756859,328.334595 61.329182,319.365082 62.085320,310.483124 
	C63.030518,299.380432 64.600990,288.330963 65.920853,277.094025 
	C65.904518,277.092926 65.225128,276.890350 64.624901,277.029419 
	C52.376545,279.866913 40.206741,283.104462 27.870541,285.479279 
	C20.250385,286.946198 12.338718,287.254517 6.621139,280.119598 
	C4.730350,277.760071 2.872759,275.373962 0.999999,273.000000 
	C1.000000,248.312439 1.000000,223.624878 1.340787,198.383087 
	C2.179252,197.008911 2.661179,196.178909 3.177004,195.370560 
	C9.454988,185.532257 17.902302,183.665329 25.237490,185.264038 
	C49.185505,190.483536 72.969025,196.454788 96.889442,201.807846 
	C99.721214,202.441544 102.949371,204.326920 106.211678,200.574402 
	C112.562614,193.269180 119.561928,186.480774 126.687958,179.906769 
	C138.680710,168.843094 152.321533,159.929657 167.070099,153.186890 
	C180.486740,147.053024 194.376038,141.658112 208.514984,137.491882 
	C219.934525,134.126984 232.036224,133.077209 243.906067,131.464249 
	C243.984543,150.550720 244.028732,169.173477 243.948761,187.795731 
	C243.939865,189.865219 243.223816,191.931671 242.835739,193.999542 
z"/>
<path fill="#F7CB16" opacity="1.000000" stroke="none" 
	d="
M242.903702,194.463730 
	C243.223816,191.931671 243.939865,189.865219 243.948761,187.795731 
	C244.028732,169.173477 243.984543,150.550720 243.974258,131.000092 
	C243.981140,95.434906 243.976852,60.797688 244.036682,26.160580 
	C244.040009,24.236540 244.419891,22.275055 244.887009,20.396255 
	C247.426361,10.182429 255.006348,4.883057 264.000000,1.000000 
	C268.689240,1.000000 273.378510,1.000000 278.682739,1.338963 
	C290.362030,4.074629 300.132843,16.053936 300.036041,29.979088 
	C299.618500,90.062904 299.316864,150.147552 299.011627,210.232101 
	C298.934601,225.393799 298.991211,240.556244 299.015228,255.718292 
	C299.017395,257.086823 299.231964,258.455017 299.306732,259.337494 
	C313.410126,237.534698 327.549408,215.676422 341.617340,193.928482 
	C331.743958,188.975723 325.040802,174.806061 327.831604,162.550171 
	C330.294769,151.733154 341.682983,141.410904 352.877533,140.930389 
	C363.341187,140.481262 372.214996,145.131790 381.500885,148.703735 
	C383.094025,149.316559 385.742615,149.242813 387.023499,148.295807 
	C401.888580,137.305588 416.636749,126.154549 431.298615,114.893433 
	C436.890778,110.598366 442.963928,107.417915 449.992035,107.081543 
	C463.553772,106.432465 474.781921,113.782547 478.633179,126.639984 
	C482.521332,139.620560 478.361084,150.856934 466.974365,158.966690 
	C456.414001,166.487930 445.649963,173.723175 435.713684,180.575348 
	C445.294250,191.064529 455.033234,200.547882 463.393127,211.121552 
	C481.657410,234.222321 492.875305,260.649994 498.046478,289.657990 
	C498.730042,293.492310 500.001038,297.221893 501.000000,301.000000 
	C501.000000,301.000000 501.000000,301.500000 500.642273,301.922424 
	C500.523041,304.563232 500.761536,306.781616 501.000000,309.000000 
	C501.000000,317.354218 501.000000,325.708466 500.650574,334.697571 
	C500.534088,337.221649 500.767059,339.110840 501.000000,341.000000 
	C501.000000,341.444458 501.000000,341.888885 501.000000,342.666687 
	C500.001770,346.777557 498.469025,350.504517 498.105560,354.342224 
	C497.015106,365.855042 491.433105,374.386536 480.986877,378.801056 
	C469.574432,383.623871 458.517181,381.443329 449.598511,372.875580 
	C442.196106,365.764374 440.516876,356.255432 442.361206,346.414337 
	C446.849335,322.466248 444.803528,299.185486 436.118835,276.448608 
	C429.504395,259.131805 419.128815,244.368835 405.962067,231.422058 
	C394.689545,220.337860 394.765228,220.265320 384.816254,232.676804 
	C369.191559,252.168823 356.445099,273.481323 345.640472,295.921722 
	C333.947083,320.207977 325.521637,345.778229 316.943298,371.284149 
	C313.359589,381.939606 309.155731,392.097809 301.102386,400.810089 
	C289.287506,413.591705 260.584869,412.067017 251.680862,393.427399 
	C247.223541,384.096405 244.834671,374.351654 244.105667,364.239838 
	C243.308167,353.177765 243.286850,342.057587 243.009476,330.960693 
	C242.632233,315.868256 242.017151,300.772858 242.066864,285.680573 
	C242.166504,255.429031 242.647873,225.178726 242.903702,194.463730 
z"/>
</svg>